<svg xmlns="http://www.w3.org/2000/svg" xmlns:xlink="http://www.w3.org/1999/xlink" width="644" zoomAndPan="magnify" viewBox="0 0 482.87997 399.74999" height="533" preserveAspectRatio="xMidYMid meet" version="1.0"><defs><g/><clipPath id="5da122d23a"><path d="M 0.0898438 0 L 482.667969 0 L 482.667969 399.5 L 0.0898438 399.5 Z M 0.0898438 0 " clip-rule="nonzero"/></clipPath><clipPath id="ae425aa1b8"><path d="M 0.5 33 L 436.09375 33 L 436.09375 304.515625 L 0.5 304.515625 Z M 0.5 33 " clip-rule="nonzero"/></clipPath><clipPath id="3142b10f8a"><path d="M 0.355469 275 L 76 275 L 76 317 L 0.355469 317 Z M 0.355469 275 " clip-rule="nonzero"/></clipPath><clipPath id="60a288905e"><path d="M 0.355469 30 L 83 30 L 83 103 L 0.355469 103 Z M 0.355469 30 " clip-rule="nonzero"/></clipPath><clipPath id="8ec45f09eb"><path d="M 1 313 L 89 313 L 89 345.566406 L 1 345.566406 Z M 1 313 " clip-rule="nonzero"/></clipPath><clipPath id="b2fc9dc1bc"><rect x="0" width="88" y="0" height="33"/></clipPath><clipPath id="d6be098325"><path d="M 348 313 L 436 313 L 436 345.566406 L 348 345.566406 Z M 348 313 " clip-rule="nonzero"/></clipPath><clipPath id="1636a9c6d8"><rect x="0" width="88" y="0" height="33"/></clipPath><clipPath id="12d3008186"><path d="M 1 0.425781 L 90 0.425781 L 90 33 L 1 33 Z M 1 0.425781 " clip-rule="nonzero"/></clipPath><clipPath id="e9d9b1f88f"><rect x="0" width="89" y="0" height="33"/></clipPath><clipPath id="a197f9986a"><rect x="0" width="437" y="0" height="346"/></clipPath></defs><g clip-path="url(#5da122d23a)"><path fill="#ffffff" d="M 0.0898438 0 L 482.789062 0 L 482.789062 399.5 L 0.0898438 399.5 Z M 0.0898438 0 " fill-opacity="1" fill-rule="nonzero"/></g><g transform="matrix(1, 0, 0, 1, 23, 25)"><g clip-path="url(#a197f9986a)"><path fill="#ff6c3b" d="M 2.304688 35.902344 L 2.304688 302.996094 L 434.292969 302.996094 C 434.292969 302.996094 8.878906 29.257812 2.304688 35.902344 Z M 2.304688 35.902344 " fill-opacity="1" fill-rule="nonzero"/><g clip-path="url(#ae425aa1b8)"><path fill="#ff6c3b" d="M 434.292969 304.800781 L 2.304688 304.800781 C 1.292969 304.800781 0.5 304.007812 0.5 302.996094 L 0.5 35.902344 C 0.5 35.394531 0.71875 34.960938 1.007812 34.601562 C 2.234375 33.375 3.171875 32.433594 23.613281 43.917969 C 35.242188 50.417969 52.070312 60.3125 73.519531 73.316406 C 109.632812 95.199219 159.472656 126.183594 221.730469 165.476562 C 327.6875 232.285156 434.222656 300.828125 435.304688 301.480469 C 435.953125 301.910156 436.316406 302.707031 436.027344 303.5 C 435.738281 304.296875 435.085938 304.800781 434.292969 304.800781 Z M 4.113281 301.191406 L 428.152344 301.191406 C 405.910156 286.890625 315.265625 228.746094 224.042969 171.183594 C 54.09375 63.851562 12.417969 40.886719 4.113281 37.921875 Z M 4.113281 301.191406 " fill-opacity="1" fill-rule="nonzero"/></g><path stroke-linecap="butt" transform="matrix(1.186901, 0.000000000000010989, -0.000000000000010989, 1.186901, 350.292498, 292.906252)" fill="none" stroke-linejoin="miter" d="M 0.000396636 1.500755 L 49.117263 1.500755 " stroke="#603913" stroke-width="3" stroke-opacity="1" stroke-miterlimit="4"/><path stroke-linecap="butt" transform="matrix(1.027887, 0.593451, -0.593451, 1.027887, 356.580127, 262.606891)" fill="none" stroke-linejoin="miter" d="M 0.000942383 1.49918 L 51.465093 1.500673 " stroke="#603913" stroke-width="3" stroke-opacity="1" stroke-miterlimit="4"/><g clip-path="url(#3142b10f8a)"><path stroke-linecap="butt" transform="matrix(1.186901, 0.00144065, -0.00144065, 1.186901, 7.768525, 294.353519)" fill="none" stroke-linejoin="miter" d="M -0.000623798 1.49911 L 39.785909 1.500185 " stroke="#603913" stroke-width="3" stroke-opacity="1" stroke-miterlimit="4"/></g><path stroke-linecap="butt" transform="matrix(0, 1.186901, -1.186901, 0, 11.324687, 250.159286)" fill="none" stroke-linejoin="miter" d="M 0.000733266 1.501151 L 39.783947 1.501151 " stroke="#603913" stroke-width="3" stroke-opacity="1" stroke-miterlimit="4"/><g clip-path="url(#60a288905e)"><path stroke-linecap="butt" transform="matrix(1.013151, 0.618271, -0.618271, 1.013151, 10.473072, 48.625908)" fill="none" stroke-linejoin="miter" d="M 0.000385923 1.498675 L 52.355635 1.500007 " stroke="#603913" stroke-width="3" stroke-opacity="1" stroke-miterlimit="4"/></g><path stroke-linecap="butt" transform="matrix(0, 1.186901, -1.186901, 0, 11.324687, 50.144266)" fill="none" stroke-linejoin="miter" d="M 0.00022344 1.501151 L 39.786729 1.501151 " stroke="#603913" stroke-width="3" stroke-opacity="1" stroke-miterlimit="4"/><g clip-path="url(#8ec45f09eb)"><g transform="matrix(1, 0, 0, 1, 1, 313)"><g clip-path="url(#b2fc9dc1bc)"><g fill="#603913" fill-opacity="1"><g transform="translate(0.776852, 25.602441)"><g><path d="M 2.078125 -3.609375 C 1.910156 -3.804688 1.785156 -4.003906 1.703125 -4.203125 C 1.628906 -4.398438 1.703125 -4.609375 1.921875 -4.828125 L 4.0625 -6.9375 C 4.226562 -7.0625 4.363281 -7.125 4.46875 -7.125 C 4.582031 -7.125 4.703125 -7.09375 4.828125 -7.03125 C 4.953125 -6.96875 5.066406 -6.882812 5.171875 -6.78125 C 5.835938 -6.113281 6.625 -5.488281 7.53125 -4.90625 C 8.4375 -4.320312 9.492188 -4.03125 10.703125 -4.03125 C 11.960938 -4.03125 12.945312 -4.347656 13.65625 -4.984375 C 14.375 -5.628906 14.734375 -6.34375 14.734375 -7.125 C 14.734375 -7.8125 14.476562 -8.363281 13.96875 -8.78125 C 13.457031 -9.195312 12.851562 -9.519531 12.15625 -9.75 C 11.46875 -9.988281 10.835938 -10.179688 10.265625 -10.328125 C 7.679688 -11.097656 5.710938 -12.039062 4.359375 -13.15625 C 3.003906 -14.269531 2.328125 -15.734375 2.328125 -17.546875 C 2.328125 -18.867188 2.6875 -20.023438 3.40625 -21.015625 C 4.132812 -22.003906 5.148438 -22.773438 6.453125 -23.328125 C 7.753906 -23.890625 9.257812 -24.171875 10.96875 -24.171875 C 12.351562 -24.171875 13.695312 -23.835938 15 -23.171875 C 16.3125 -22.515625 17.4375 -21.707031 18.375 -20.75 C 18.757812 -20.34375 18.75 -19.925781 18.34375 -19.5 L 16.59375 -17.609375 C 16.445312 -17.484375 16.296875 -17.421875 16.140625 -17.421875 C 16.015625 -17.421875 15.882812 -17.460938 15.75 -17.546875 C 15.625 -17.628906 15.5 -17.71875 15.375 -17.8125 C 15.03125 -18.101562 14.625 -18.421875 14.15625 -18.765625 C 13.6875 -19.109375 13.171875 -19.398438 12.609375 -19.640625 C 12.046875 -19.890625 11.445312 -20.015625 10.8125 -20.015625 C 10.269531 -20.015625 9.710938 -19.945312 9.140625 -19.8125 C 8.566406 -19.6875 8.085938 -19.441406 7.703125 -19.078125 C 7.316406 -18.722656 7.125 -18.179688 7.125 -17.453125 C 7.125 -16.640625 7.554688 -16.023438 8.421875 -15.609375 C 9.285156 -15.203125 10.398438 -14.804688 11.765625 -14.421875 C 13.210938 -13.992188 14.53125 -13.484375 15.71875 -12.890625 C 16.914062 -12.304688 17.875 -11.550781 18.59375 -10.625 C 19.320312 -9.695312 19.6875 -8.488281 19.6875 -7 C 19.6875 -5.53125 19.265625 -4.242188 18.421875 -3.140625 C 17.585938 -2.046875 16.5 -1.195312 15.15625 -0.59375 C 13.8125 0.0078125 12.363281 0.3125 10.8125 0.3125 C 9.164062 0.3125 7.5625 -0.046875 6 -0.765625 C 4.445312 -1.492188 3.140625 -2.441406 2.078125 -3.609375 Z M 2.078125 -3.609375 "/></g></g></g><g fill="#603913" fill-opacity="1"><g transform="translate(21.270996, 25.602441)"><g><path d="M 14.484375 0 C 14.054688 0 13.753906 -0.078125 13.578125 -0.234375 C 13.410156 -0.398438 13.296875 -0.628906 13.234375 -0.921875 C 13.171875 -1.222656 13.085938 -1.554688 12.984375 -1.921875 C 12.492188 -1.367188 11.796875 -0.878906 10.890625 -0.453125 C 9.984375 -0.0234375 9.003906 0.1875 7.953125 0.1875 C 5.972656 0.1875 4.472656 -0.398438 3.453125 -1.578125 C 2.429688 -2.765625 1.921875 -4.273438 1.921875 -6.109375 L 1.921875 -14.734375 C 1.921875 -15.035156 2.007812 -15.269531 2.1875 -15.4375 C 2.375 -15.613281 2.59375 -15.703125 2.84375 -15.703125 L 5.46875 -15.703125 C 5.8125 -15.703125 6.046875 -15.617188 6.171875 -15.453125 C 6.296875 -15.296875 6.359375 -15.066406 6.359375 -14.765625 L 6.359375 -6.84375 C 6.359375 -5.988281 6.609375 -5.300781 7.109375 -4.78125 C 7.609375 -4.257812 8.273438 -4 9.109375 -4 C 9.578125 -4 10.09375 -4.113281 10.65625 -4.34375 C 11.226562 -4.582031 11.71875 -4.910156 12.125 -5.328125 C 12.539062 -5.742188 12.75 -6.21875 12.75 -6.75 L 12.75 -14.796875 C 12.75 -15.398438 13.0625 -15.703125 13.6875 -15.703125 L 16.265625 -15.703125 C 16.566406 -15.703125 16.796875 -15.613281 16.953125 -15.4375 C 17.117188 -15.269531 17.203125 -15.054688 17.203125 -14.796875 L 17.203125 -0.953125 C 17.203125 -0.316406 16.867188 0 16.203125 0 Z M 14.484375 0 "/></g></g></g><g fill="#603913" fill-opacity="1"><g transform="translate(39.43117, 25.602441)"><g><path d="M 17.109375 -22.921875 L 17.109375 -0.796875 C 17.109375 -0.285156 16.835938 -0.0195312 16.296875 0 L 14.890625 0 C 14.492188 0 14.132812 -0.03125 13.8125 -0.09375 C 13.507812 -0.175781 13.328125 -0.394531 13.265625 -0.75 C 13.203125 -1.101562 13.128906 -1.484375 13.046875 -1.890625 C 12.515625 -1.117188 11.921875 -0.554688 11.265625 -0.203125 C 10.617188 0.140625 9.75 0.3125 8.65625 0.3125 C 7.1875 0.3125 5.890625 -0.046875 4.765625 -0.765625 C 3.648438 -1.492188 2.78125 -2.46875 2.15625 -3.6875 C 1.53125 -4.914062 1.21875 -6.273438 1.21875 -7.765625 C 1.21875 -9.273438 1.523438 -10.644531 2.140625 -11.875 C 2.753906 -13.101562 3.625 -14.078125 4.75 -14.796875 C 5.882812 -15.523438 7.210938 -15.890625 8.734375 -15.890625 C 9.734375 -15.890625 10.535156 -15.71875 11.140625 -15.375 C 11.742188 -15.03125 12.269531 -14.582031 12.71875 -14.03125 L 12.71875 -22.921875 C 12.71875 -23.453125 13 -23.71875 13.5625 -23.71875 L 16.171875 -23.71875 C 16.410156 -23.71875 16.625 -23.640625 16.8125 -23.484375 C 17.007812 -23.335938 17.109375 -23.148438 17.109375 -22.921875 Z M 13.140625 -7.734375 C 13.140625 -8.523438 12.976562 -9.238281 12.65625 -9.875 C 12.34375 -10.519531 11.894531 -11.03125 11.3125 -11.40625 C 10.738281 -11.789062 10.066406 -11.984375 9.296875 -11.984375 C 8.085938 -11.984375 7.148438 -11.566406 6.484375 -10.734375 C 5.828125 -9.910156 5.5 -8.910156 5.5 -7.734375 C 5.5 -6.566406 5.828125 -5.570312 6.484375 -4.75 C 7.148438 -3.925781 8.085938 -3.515625 9.296875 -3.515625 C 10.429688 -3.515625 11.347656 -3.925781 12.046875 -4.75 C 12.753906 -5.570312 13.117188 -6.554688 13.140625 -7.703125 Z M 13.140625 -7.734375 "/></g></g></g><g fill="#603913" fill-opacity="1"><g transform="translate(57.943042, 25.602441)"><g><path d="M 14.484375 0 C 14.054688 0 13.753906 -0.078125 13.578125 -0.234375 C 13.410156 -0.398438 13.296875 -0.628906 13.234375 -0.921875 C 13.171875 -1.222656 13.085938 -1.554688 12.984375 -1.921875 C 12.492188 -1.367188 11.796875 -0.878906 10.890625 -0.453125 C 9.984375 -0.0234375 9.003906 0.1875 7.953125 0.1875 C 5.972656 0.1875 4.472656 -0.398438 3.453125 -1.578125 C 2.429688 -2.765625 1.921875 -4.273438 1.921875 -6.109375 L 1.921875 -14.734375 C 1.921875 -15.035156 2.007812 -15.269531 2.1875 -15.4375 C 2.375 -15.613281 2.59375 -15.703125 2.84375 -15.703125 L 5.46875 -15.703125 C 5.8125 -15.703125 6.046875 -15.617188 6.171875 -15.453125 C 6.296875 -15.296875 6.359375 -15.066406 6.359375 -14.765625 L 6.359375 -6.84375 C 6.359375 -5.988281 6.609375 -5.300781 7.109375 -4.78125 C 7.609375 -4.257812 8.273438 -4 9.109375 -4 C 9.578125 -4 10.09375 -4.113281 10.65625 -4.34375 C 11.226562 -4.582031 11.71875 -4.910156 12.125 -5.328125 C 12.539062 -5.742188 12.75 -6.21875 12.75 -6.75 L 12.75 -14.796875 C 12.75 -15.398438 13.0625 -15.703125 13.6875 -15.703125 L 16.265625 -15.703125 C 16.566406 -15.703125 16.796875 -15.613281 16.953125 -15.4375 C 17.117188 -15.269531 17.203125 -15.054688 17.203125 -14.796875 L 17.203125 -0.953125 C 17.203125 -0.316406 16.867188 0 16.203125 0 Z M 14.484375 0 "/></g></g></g><g fill="#603913" fill-opacity="1"><g transform="translate(76.103216, 25.602441)"><g><path d="M 2.625 -15.703125 L 2.625 -20.015625 C 2.625 -20.566406 2.953125 -20.875 3.609375 -20.9375 L 5.984375 -21.296875 C 6.023438 -21.316406 6.097656 -21.328125 6.203125 -21.328125 C 6.503906 -21.328125 6.707031 -21.234375 6.8125 -21.046875 C 6.914062 -20.867188 6.96875 -20.640625 6.96875 -20.359375 L 6.96875 -15.703125 L 8.890625 -15.703125 C 9.460938 -15.703125 9.75 -15.390625 9.75 -14.765625 L 9.75 -13.015625 C 9.75 -12.347656 9.460938 -12.015625 8.890625 -12.015625 L 6.96875 -12.015625 L 6.96875 -0.921875 C 6.96875 -0.304688 6.679688 0 6.109375 0 L 3.421875 0 C 3.097656 0 2.882812 -0.078125 2.78125 -0.234375 C 2.675781 -0.398438 2.625 -0.628906 2.625 -0.921875 L 2.625 -12.015625 L 1.765625 -12.015625 C 1.140625 -12.015625 0.828125 -12.347656 0.828125 -13.015625 L 0.828125 -14.765625 C 0.828125 -15.390625 1.140625 -15.703125 1.765625 -15.703125 Z M 2.625 -15.703125 "/></g></g></g></g></g></g><g clip-path="url(#d6be098325)"><g transform="matrix(1, 0, 0, 1, 348, 313)"><g clip-path="url(#1636a9c6d8)"><g fill="#603913" fill-opacity="1"><g transform="translate(1.231969, 25.602441)"><g><path d="M 2.078125 -3.609375 C 1.910156 -3.804688 1.785156 -4.003906 1.703125 -4.203125 C 1.628906 -4.398438 1.703125 -4.609375 1.921875 -4.828125 L 4.0625 -6.9375 C 4.226562 -7.0625 4.363281 -7.125 4.46875 -7.125 C 4.582031 -7.125 4.703125 -7.09375 4.828125 -7.03125 C 4.953125 -6.96875 5.066406 -6.882812 5.171875 -6.78125 C 5.835938 -6.113281 6.625 -5.488281 7.53125 -4.90625 C 8.4375 -4.320312 9.492188 -4.03125 10.703125 -4.03125 C 11.960938 -4.03125 12.945312 -4.347656 13.65625 -4.984375 C 14.375 -5.628906 14.734375 -6.34375 14.734375 -7.125 C 14.734375 -7.8125 14.476562 -8.363281 13.96875 -8.78125 C 13.457031 -9.195312 12.851562 -9.519531 12.15625 -9.75 C 11.46875 -9.988281 10.835938 -10.179688 10.265625 -10.328125 C 7.679688 -11.097656 5.710938 -12.039062 4.359375 -13.15625 C 3.003906 -14.269531 2.328125 -15.734375 2.328125 -17.546875 C 2.328125 -18.867188 2.6875 -20.023438 3.40625 -21.015625 C 4.132812 -22.003906 5.148438 -22.773438 6.453125 -23.328125 C 7.753906 -23.890625 9.257812 -24.171875 10.96875 -24.171875 C 12.351562 -24.171875 13.695312 -23.835938 15 -23.171875 C 16.3125 -22.515625 17.4375 -21.707031 18.375 -20.75 C 18.757812 -20.34375 18.75 -19.925781 18.34375 -19.5 L 16.59375 -17.609375 C 16.445312 -17.484375 16.296875 -17.421875 16.140625 -17.421875 C 16.015625 -17.421875 15.882812 -17.460938 15.75 -17.546875 C 15.625 -17.628906 15.5 -17.71875 15.375 -17.8125 C 15.03125 -18.101562 14.625 -18.421875 14.15625 -18.765625 C 13.6875 -19.109375 13.171875 -19.398438 12.609375 -19.640625 C 12.046875 -19.890625 11.445312 -20.015625 10.8125 -20.015625 C 10.269531 -20.015625 9.710938 -19.945312 9.140625 -19.8125 C 8.566406 -19.6875 8.085938 -19.441406 7.703125 -19.078125 C 7.316406 -18.722656 7.125 -18.179688 7.125 -17.453125 C 7.125 -16.640625 7.554688 -16.023438 8.421875 -15.609375 C 9.285156 -15.203125 10.398438 -14.804688 11.765625 -14.421875 C 13.210938 -13.992188 14.53125 -13.484375 15.71875 -12.890625 C 16.914062 -12.304688 17.875 -11.550781 18.59375 -10.625 C 19.320312 -9.695312 19.6875 -8.488281 19.6875 -7 C 19.6875 -5.53125 19.265625 -4.242188 18.421875 -3.140625 C 17.585938 -2.046875 16.5 -1.195312 15.15625 -0.59375 C 13.8125 0.0078125 12.363281 0.3125 10.8125 0.3125 C 9.164062 0.3125 7.5625 -0.046875 6 -0.765625 C 4.445312 -1.492188 3.140625 -2.441406 2.078125 -3.609375 Z M 2.078125 -3.609375 "/></g></g></g><g fill="#603913" fill-opacity="1"><g transform="translate(21.726113, 25.602441)"><g><path d="M 14.484375 0 C 14.054688 0 13.753906 -0.078125 13.578125 -0.234375 C 13.410156 -0.398438 13.296875 -0.628906 13.234375 -0.921875 C 13.171875 -1.222656 13.085938 -1.554688 12.984375 -1.921875 C 12.492188 -1.367188 11.796875 -0.878906 10.890625 -0.453125 C 9.984375 -0.0234375 9.003906 0.1875 7.953125 0.1875 C 5.972656 0.1875 4.472656 -0.398438 3.453125 -1.578125 C 2.429688 -2.765625 1.921875 -4.273438 1.921875 -6.109375 L 1.921875 -14.734375 C 1.921875 -15.035156 2.007812 -15.269531 2.1875 -15.4375 C 2.375 -15.613281 2.59375 -15.703125 2.84375 -15.703125 L 5.46875 -15.703125 C 5.8125 -15.703125 6.046875 -15.617188 6.171875 -15.453125 C 6.296875 -15.296875 6.359375 -15.066406 6.359375 -14.765625 L 6.359375 -6.84375 C 6.359375 -5.988281 6.609375 -5.300781 7.109375 -4.78125 C 7.609375 -4.257812 8.273438 -4 9.109375 -4 C 9.578125 -4 10.09375 -4.113281 10.65625 -4.34375 C 11.226562 -4.582031 11.71875 -4.910156 12.125 -5.328125 C 12.539062 -5.742188 12.75 -6.21875 12.75 -6.75 L 12.75 -14.796875 C 12.75 -15.398438 13.0625 -15.703125 13.6875 -15.703125 L 16.265625 -15.703125 C 16.566406 -15.703125 16.796875 -15.613281 16.953125 -15.4375 C 17.117188 -15.269531 17.203125 -15.054688 17.203125 -14.796875 L 17.203125 -0.953125 C 17.203125 -0.316406 16.867188 0 16.203125 0 Z M 14.484375 0 "/></g></g></g><g fill="#603913" fill-opacity="1"><g transform="translate(39.886287, 25.602441)"><g><path d="M 17.109375 -22.921875 L 17.109375 -0.796875 C 17.109375 -0.285156 16.835938 -0.0195312 16.296875 0 L 14.890625 0 C 14.492188 0 14.132812 -0.03125 13.8125 -0.09375 C 13.507812 -0.175781 13.328125 -0.394531 13.265625 -0.75 C 13.203125 -1.101562 13.128906 -1.484375 13.046875 -1.890625 C 12.515625 -1.117188 11.921875 -0.554688 11.265625 -0.203125 C 10.617188 0.140625 9.75 0.3125 8.65625 0.3125 C 7.1875 0.3125 5.890625 -0.046875 4.765625 -0.765625 C 3.648438 -1.492188 2.78125 -2.46875 2.15625 -3.6875 C 1.53125 -4.914062 1.21875 -6.273438 1.21875 -7.765625 C 1.21875 -9.273438 1.523438 -10.644531 2.140625 -11.875 C 2.753906 -13.101562 3.625 -14.078125 4.75 -14.796875 C 5.882812 -15.523438 7.210938 -15.890625 8.734375 -15.890625 C 9.734375 -15.890625 10.535156 -15.71875 11.140625 -15.375 C 11.742188 -15.03125 12.269531 -14.582031 12.71875 -14.03125 L 12.71875 -22.921875 C 12.71875 -23.453125 13 -23.71875 13.5625 -23.71875 L 16.171875 -23.71875 C 16.410156 -23.71875 16.625 -23.640625 16.8125 -23.484375 C 17.007812 -23.335938 17.109375 -23.148438 17.109375 -22.921875 Z M 13.140625 -7.734375 C 13.140625 -8.523438 12.976562 -9.238281 12.65625 -9.875 C 12.34375 -10.519531 11.894531 -11.03125 11.3125 -11.40625 C 10.738281 -11.789062 10.066406 -11.984375 9.296875 -11.984375 C 8.085938 -11.984375 7.148438 -11.566406 6.484375 -10.734375 C 5.828125 -9.910156 5.5 -8.910156 5.5 -7.734375 C 5.5 -6.566406 5.828125 -5.570312 6.484375 -4.75 C 7.148438 -3.925781 8.085938 -3.515625 9.296875 -3.515625 C 10.429688 -3.515625 11.347656 -3.925781 12.046875 -4.75 C 12.753906 -5.570312 13.117188 -6.554688 13.140625 -7.703125 Z M 13.140625 -7.734375 "/></g></g></g><g fill="#603913" fill-opacity="1"><g transform="translate(58.398159, 25.602441)"><g><path d="M 14.484375 0 C 14.054688 0 13.753906 -0.078125 13.578125 -0.234375 C 13.410156 -0.398438 13.296875 -0.628906 13.234375 -0.921875 C 13.171875 -1.222656 13.085938 -1.554688 12.984375 -1.921875 C 12.492188 -1.367188 11.796875 -0.878906 10.890625 -0.453125 C 9.984375 -0.0234375 9.003906 0.1875 7.953125 0.1875 C 5.972656 0.1875 4.472656 -0.398438 3.453125 -1.578125 C 2.429688 -2.765625 1.921875 -4.273438 1.921875 -6.109375 L 1.921875 -14.734375 C 1.921875 -15.035156 2.007812 -15.269531 2.1875 -15.4375 C 2.375 -15.613281 2.59375 -15.703125 2.84375 -15.703125 L 5.46875 -15.703125 C 5.8125 -15.703125 6.046875 -15.617188 6.171875 -15.453125 C 6.296875 -15.296875 6.359375 -15.066406 6.359375 -14.765625 L 6.359375 -6.84375 C 6.359375 -5.988281 6.609375 -5.300781 7.109375 -4.78125 C 7.609375 -4.257812 8.273438 -4 9.109375 -4 C 9.578125 -4 10.09375 -4.113281 10.65625 -4.34375 C 11.226562 -4.582031 11.71875 -4.910156 12.125 -5.328125 C 12.539062 -5.742188 12.75 -6.21875 12.75 -6.75 L 12.75 -14.796875 C 12.75 -15.398438 13.0625 -15.703125 13.6875 -15.703125 L 16.265625 -15.703125 C 16.566406 -15.703125 16.796875 -15.613281 16.953125 -15.4375 C 17.117188 -15.269531 17.203125 -15.054688 17.203125 -14.796875 L 17.203125 -0.953125 C 17.203125 -0.316406 16.867188 0 16.203125 0 Z M 14.484375 0 "/></g></g></g><g fill="#603913" fill-opacity="1"><g transform="translate(76.558333, 25.602441)"><g><path d="M 2.625 -15.703125 L 2.625 -20.015625 C 2.625 -20.566406 2.953125 -20.875 3.609375 -20.9375 L 5.984375 -21.296875 C 6.023438 -21.316406 6.097656 -21.328125 6.203125 -21.328125 C 6.503906 -21.328125 6.707031 -21.234375 6.8125 -21.046875 C 6.914062 -20.867188 6.96875 -20.640625 6.96875 -20.359375 L 6.96875 -15.703125 L 8.890625 -15.703125 C 9.460938 -15.703125 9.75 -15.390625 9.75 -14.765625 L 9.75 -13.015625 C 9.75 -12.347656 9.460938 -12.015625 8.890625 -12.015625 L 6.96875 -12.015625 L 6.96875 -0.921875 C 6.96875 -0.304688 6.679688 0 6.109375 0 L 3.421875 0 C 3.097656 0 2.882812 -0.078125 2.78125 -0.234375 C 2.675781 -0.398438 2.625 -0.628906 2.625 -0.921875 L 2.625 -12.015625 L 1.765625 -12.015625 C 1.140625 -12.015625 0.828125 -12.347656 0.828125 -13.015625 L 0.828125 -14.765625 C 0.828125 -15.390625 1.140625 -15.703125 1.765625 -15.703125 Z M 2.625 -15.703125 "/></g></g></g></g></g></g><g clip-path="url(#12d3008186)"><g transform="matrix(1, 0, 0, 1, 1, 0)"><g clip-path="url(#e9d9b1f88f)"><g fill="#603913" fill-opacity="1"><g transform="translate(1.561552, 25.292558)"><g><path d="M 2.078125 -3.609375 C 1.910156 -3.804688 1.785156 -4.003906 1.703125 -4.203125 C 1.628906 -4.398438 1.703125 -4.609375 1.921875 -4.828125 L 4.0625 -6.9375 C 4.226562 -7.0625 4.363281 -7.125 4.46875 -7.125 C 4.582031 -7.125 4.703125 -7.09375 4.828125 -7.03125 C 4.953125 -6.96875 5.066406 -6.882812 5.171875 -6.78125 C 5.835938 -6.113281 6.625 -5.488281 7.53125 -4.90625 C 8.4375 -4.320312 9.492188 -4.03125 10.703125 -4.03125 C 11.960938 -4.03125 12.945312 -4.347656 13.65625 -4.984375 C 14.375 -5.628906 14.734375 -6.34375 14.734375 -7.125 C 14.734375 -7.8125 14.476562 -8.363281 13.96875 -8.78125 C 13.457031 -9.195312 12.851562 -9.519531 12.15625 -9.75 C 11.46875 -9.988281 10.835938 -10.179688 10.265625 -10.328125 C 7.679688 -11.097656 5.710938 -12.039062 4.359375 -13.15625 C 3.003906 -14.269531 2.328125 -15.734375 2.328125 -17.546875 C 2.328125 -18.867188 2.6875 -20.023438 3.40625 -21.015625 C 4.132812 -22.003906 5.148438 -22.773438 6.453125 -23.328125 C 7.753906 -23.890625 9.257812 -24.171875 10.96875 -24.171875 C 12.351562 -24.171875 13.695312 -23.835938 15 -23.171875 C 16.3125 -22.515625 17.4375 -21.707031 18.375 -20.75 C 18.757812 -20.34375 18.75 -19.925781 18.34375 -19.5 L 16.59375 -17.609375 C 16.445312 -17.484375 16.296875 -17.421875 16.140625 -17.421875 C 16.015625 -17.421875 15.882812 -17.460938 15.75 -17.546875 C 15.625 -17.628906 15.5 -17.71875 15.375 -17.8125 C 15.03125 -18.101562 14.625 -18.421875 14.15625 -18.765625 C 13.6875 -19.109375 13.171875 -19.398438 12.609375 -19.640625 C 12.046875 -19.890625 11.445312 -20.015625 10.8125 -20.015625 C 10.269531 -20.015625 9.710938 -19.945312 9.140625 -19.8125 C 8.566406 -19.6875 8.085938 -19.441406 7.703125 -19.078125 C 7.316406 -18.722656 7.125 -18.179688 7.125 -17.453125 C 7.125 -16.640625 7.554688 -16.023438 8.421875 -15.609375 C 9.285156 -15.203125 10.398438 -14.804688 11.765625 -14.421875 C 13.210938 -13.992188 14.53125 -13.484375 15.71875 -12.890625 C 16.914062 -12.304688 17.875 -11.550781 18.59375 -10.625 C 19.320312 -9.695312 19.6875 -8.488281 19.6875 -7 C 19.6875 -5.53125 19.265625 -4.242188 18.421875 -3.140625 C 17.585938 -2.046875 16.5 -1.195312 15.15625 -0.59375 C 13.8125 0.0078125 12.363281 0.3125 10.8125 0.3125 C 9.164062 0.3125 7.5625 -0.046875 6 -0.765625 C 4.445312 -1.492188 3.140625 -2.441406 2.078125 -3.609375 Z M 2.078125 -3.609375 "/></g></g></g><g fill="#603913" fill-opacity="1"><g transform="translate(22.055696, 25.292558)"><g><path d="M 14.484375 0 C 14.054688 0 13.753906 -0.078125 13.578125 -0.234375 C 13.410156 -0.398438 13.296875 -0.628906 13.234375 -0.921875 C 13.171875 -1.222656 13.085938 -1.554688 12.984375 -1.921875 C 12.492188 -1.367188 11.796875 -0.878906 10.890625 -0.453125 C 9.984375 -0.0234375 9.003906 0.1875 7.953125 0.1875 C 5.972656 0.1875 4.472656 -0.398438 3.453125 -1.578125 C 2.429688 -2.765625 1.921875 -4.273438 1.921875 -6.109375 L 1.921875 -14.734375 C 1.921875 -15.035156 2.007812 -15.269531 2.1875 -15.4375 C 2.375 -15.613281 2.59375 -15.703125 2.84375 -15.703125 L 5.46875 -15.703125 C 5.8125 -15.703125 6.046875 -15.617188 6.171875 -15.453125 C 6.296875 -15.296875 6.359375 -15.066406 6.359375 -14.765625 L 6.359375 -6.84375 C 6.359375 -5.988281 6.609375 -5.300781 7.109375 -4.78125 C 7.609375 -4.257812 8.273438 -4 9.109375 -4 C 9.578125 -4 10.09375 -4.113281 10.65625 -4.34375 C 11.226562 -4.582031 11.71875 -4.910156 12.125 -5.328125 C 12.539062 -5.742188 12.75 -6.21875 12.75 -6.75 L 12.75 -14.796875 C 12.75 -15.398438 13.0625 -15.703125 13.6875 -15.703125 L 16.265625 -15.703125 C 16.566406 -15.703125 16.796875 -15.613281 16.953125 -15.4375 C 17.117188 -15.269531 17.203125 -15.054688 17.203125 -14.796875 L 17.203125 -0.953125 C 17.203125 -0.316406 16.867188 0 16.203125 0 Z M 14.484375 0 "/></g></g></g><g fill="#603913" fill-opacity="1"><g transform="translate(40.215871, 25.292558)"><g><path d="M 17.109375 -22.921875 L 17.109375 -0.796875 C 17.109375 -0.285156 16.835938 -0.0195312 16.296875 0 L 14.890625 0 C 14.492188 0 14.132812 -0.03125 13.8125 -0.09375 C 13.507812 -0.175781 13.328125 -0.394531 13.265625 -0.75 C 13.203125 -1.101562 13.128906 -1.484375 13.046875 -1.890625 C 12.515625 -1.117188 11.921875 -0.554688 11.265625 -0.203125 C 10.617188 0.140625 9.75 0.3125 8.65625 0.3125 C 7.1875 0.3125 5.890625 -0.046875 4.765625 -0.765625 C 3.648438 -1.492188 2.78125 -2.46875 2.15625 -3.6875 C 1.53125 -4.914062 1.21875 -6.273438 1.21875 -7.765625 C 1.21875 -9.273438 1.523438 -10.644531 2.140625 -11.875 C 2.753906 -13.101562 3.625 -14.078125 4.75 -14.796875 C 5.882812 -15.523438 7.210938 -15.890625 8.734375 -15.890625 C 9.734375 -15.890625 10.535156 -15.71875 11.140625 -15.375 C 11.742188 -15.03125 12.269531 -14.582031 12.71875 -14.03125 L 12.71875 -22.921875 C 12.71875 -23.453125 13 -23.71875 13.5625 -23.71875 L 16.171875 -23.71875 C 16.410156 -23.71875 16.625 -23.640625 16.8125 -23.484375 C 17.007812 -23.335938 17.109375 -23.148438 17.109375 -22.921875 Z M 13.140625 -7.734375 C 13.140625 -8.523438 12.976562 -9.238281 12.65625 -9.875 C 12.34375 -10.519531 11.894531 -11.03125 11.3125 -11.40625 C 10.738281 -11.789062 10.066406 -11.984375 9.296875 -11.984375 C 8.085938 -11.984375 7.148438 -11.566406 6.484375 -10.734375 C 5.828125 -9.910156 5.5 -8.910156 5.5 -7.734375 C 5.5 -6.566406 5.828125 -5.570312 6.484375 -4.75 C 7.148438 -3.925781 8.085938 -3.515625 9.296875 -3.515625 C 10.429688 -3.515625 11.347656 -3.925781 12.046875 -4.75 C 12.753906 -5.570312 13.117188 -6.554688 13.140625 -7.703125 Z M 13.140625 -7.734375 "/></g></g></g><g fill="#603913" fill-opacity="1"><g transform="translate(58.727742, 25.292558)"><g><path d="M 14.484375 0 C 14.054688 0 13.753906 -0.078125 13.578125 -0.234375 C 13.410156 -0.398438 13.296875 -0.628906 13.234375 -0.921875 C 13.171875 -1.222656 13.085938 -1.554688 12.984375 -1.921875 C 12.492188 -1.367188 11.796875 -0.878906 10.890625 -0.453125 C 9.984375 -0.0234375 9.003906 0.1875 7.953125 0.1875 C 5.972656 0.1875 4.472656 -0.398438 3.453125 -1.578125 C 2.429688 -2.765625 1.921875 -4.273438 1.921875 -6.109375 L 1.921875 -14.734375 C 1.921875 -15.035156 2.007812 -15.269531 2.1875 -15.4375 C 2.375 -15.613281 2.59375 -15.703125 2.84375 -15.703125 L 5.46875 -15.703125 C 5.8125 -15.703125 6.046875 -15.617188 6.171875 -15.453125 C 6.296875 -15.296875 6.359375 -15.066406 6.359375 -14.765625 L 6.359375 -6.84375 C 6.359375 -5.988281 6.609375 -5.300781 7.109375 -4.78125 C 7.609375 -4.257812 8.273438 -4 9.109375 -4 C 9.578125 -4 10.09375 -4.113281 10.65625 -4.34375 C 11.226562 -4.582031 11.71875 -4.910156 12.125 -5.328125 C 12.539062 -5.742188 12.75 -6.21875 12.75 -6.75 L 12.75 -14.796875 C 12.75 -15.398438 13.0625 -15.703125 13.6875 -15.703125 L 16.265625 -15.703125 C 16.566406 -15.703125 16.796875 -15.613281 16.953125 -15.4375 C 17.117188 -15.269531 17.203125 -15.054688 17.203125 -14.796875 L 17.203125 -0.953125 C 17.203125 -0.316406 16.867188 0 16.203125 0 Z M 14.484375 0 "/></g></g></g><g fill="#603913" fill-opacity="1"><g transform="translate(76.887916, 25.292558)"><g><path d="M 2.625 -15.703125 L 2.625 -20.015625 C 2.625 -20.566406 2.953125 -20.875 3.609375 -20.9375 L 5.984375 -21.296875 C 6.023438 -21.316406 6.097656 -21.328125 6.203125 -21.328125 C 6.503906 -21.328125 6.707031 -21.234375 6.8125 -21.046875 C 6.914062 -20.867188 6.96875 -20.640625 6.96875 -20.359375 L 6.96875 -15.703125 L 8.890625 -15.703125 C 9.460938 -15.703125 9.75 -15.390625 9.75 -14.765625 L 9.75 -13.015625 C 9.75 -12.347656 9.460938 -12.015625 8.890625 -12.015625 L 6.96875 -12.015625 L 6.96875 -0.921875 C 6.96875 -0.304688 6.679688 0 6.109375 0 L 3.421875 0 C 3.097656 0 2.882812 -0.078125 2.78125 -0.234375 C 2.675781 -0.398438 2.625 -0.628906 2.625 -0.921875 L 2.625 -12.015625 L 1.765625 -12.015625 C 1.140625 -12.015625 0.828125 -12.347656 0.828125 -13.015625 L 0.828125 -14.765625 C 0.828125 -15.390625 1.140625 -15.703125 1.765625 -15.703125 Z M 2.625 -15.703125 "/></g></g></g></g></g></g></g></g></svg>